<?xml version="1.0"?>
<svg xmlns="http://www.w3.org/2000/svg" height="512px" viewBox="-72 0 480 480" width="512px" class=""><g><path d="m312 192h-72v16h72c4.417969.003906 7.996094 3.582031 8 8v240c-.003906 4.417969-3.582031 7.996094-8 8h-288c-4.417969-.003906-7.996094-3.582031-8-8v-240c.003906-4.417969 3.582031-7.996094 8-8h72v-16h-72c-13.25.015625-23.984375 10.75-24 24v240c.015625 13.25 10.75 23.984375 24 24h288c13.25-.015625 23.984375-10.75 24-24v-240c-.015625-13.25-10.75-23.984375-24-24zm0 0" data-original="#000000" class="active-path" data-old_color="#000000" fill="#FAA400"/><path d="m264 224c-17.671875 0-32 14.328125-32 32s14.328125 32 32 32 32-14.328125 32-32c-.019531-17.664062-14.335938-31.980469-32-32zm0 48c-8.835938 0-16-7.164062-16-16s7.164062-16 16-16 16 7.164062 16 16c-.011719 8.832031-7.167969 15.988281-16 16zm0 0" data-original="#000000" class="active-path" data-old_color="#000000" fill="#FAA400"/><path d="m53.65625 365.65625 18.34375-18.34375 18.34375 18.34375 11.3125-11.3125-18.34375-18.34375 18.34375-18.34375-11.3125-11.3125-18.34375 18.34375-18.34375-18.34375-11.3125 11.3125 18.34375 18.34375-18.34375 18.34375zm0 0" data-original="#000000" class="active-path" data-old_color="#000000" fill="#FAA400"/><path d="m53.65625 285.65625 18.34375-18.34375 18.34375 18.34375 11.3125-11.3125-18.34375-18.34375 18.34375-18.34375-11.3125-11.3125-18.34375 18.34375-18.34375-18.34375-11.3125 11.3125 18.34375 18.34375-18.34375 18.34375zm0 0" data-original="#000000" class="active-path" data-old_color="#000000" fill="#FAA400"/><path d="m186.34375 386.34375-18.34375 18.34375-18.34375-18.34375-11.3125 11.3125 18.34375 18.34375-18.34375 18.34375 11.3125 11.3125 18.34375-18.34375 18.34375 18.34375 11.3125-11.3125-18.34375-18.34375 18.34375-18.34375zm0 0" data-original="#000000" class="active-path" data-old_color="#000000" fill="#FAA400"/><path d="m282.34375 386.34375-18.34375 18.34375-18.34375-18.34375-11.3125 11.3125 18.34375 18.34375-18.34375 18.34375 11.3125 11.3125 18.34375-18.34375 18.34375 18.34375 11.3125-11.3125-18.34375-18.34375 18.34375-18.34375zm0 0" data-original="#000000" class="active-path" data-old_color="#000000" fill="#FAA400"/><path d="m282.34375 306.34375-18.34375 18.34375-18.34375-18.34375-11.3125 11.3125 18.34375 18.34375-18.34375 18.34375 11.3125 11.3125 18.34375-18.34375 18.34375 18.34375 11.3125-11.3125-18.34375-18.34375 18.34375-18.34375zm0 0" data-original="#000000" class="active-path" data-old_color="#000000" fill="#FAA400"/><path d="m72 448c17.671875 0 32-14.328125 32-32s-14.328125-32-32-32-32 14.328125-32 32c.019531 17.664062 14.335938 31.980469 32 32zm0-48c8.835938 0 16 7.164062 16 16s-7.164062 16-16 16-16-7.164062-16-16c.011719-8.832031 7.167969-15.988281 16-16zm0 0" data-original="#000000" class="active-path" data-old_color="#000000" fill="#FAA400"/><path d="m168 304c-17.671875 0-32 14.328125-32 32s14.328125 32 32 32 32-14.328125 32-32c-.019531-17.664062-14.335938-31.980469-32-32zm0 48c-8.835938 0-16-7.164062-16-16s7.164062-16 16-16 16 7.164062 16 16c-.011719 8.832031-7.167969 15.988281-16 16zm0 0" data-original="#000000" class="active-path" data-old_color="#000000" fill="#FAA400"/><path d="m120 193.660156v38.339844c.03125 10.136719 6.4375 19.15625 16 22.523438v9.476562c.015625 13.25 10.75 23.984375 24 24h16c13.25-.015625 23.984375-10.75 24-24v-9.472656c9.5625-3.371094 15.96875-12.390625 16-22.527344v-38.339844c32.652344-21.25 47.445312-61.441406 36.363281-98.789062-11.082031-37.351563-45.40625-62.96875-84.363281-62.96875s-73.28125 25.617187-84.363281 62.96875c-11.082031 37.347656 3.710937 77.539062 36.363281 98.789062zm64 70.339844c-.003906 4.417969-3.582031 7.996094-8 8h-16c-4.417969-.003906-7.996094-3.582031-8-8v-8h32zm16-32c-.003906 4.417969-3.582031 7.996094-8 8h-48c-4.417969-.003906-7.996094-3.582031-8-8v-30.113281c20.554688 8.152343 43.445312 8.152343 64 0zm-32-184c39.765625 0 72 32.234375 72 72s-32.234375 72-72 72-72-32.234375-72-72c.042969-39.746094 32.253906-71.957031 72-72zm0 0" data-original="#000000" class="active-path" data-old_color="#000000" fill="#FAA400"/><path d="m160 0h16v16h-16zm0 0" data-original="#000000" class="active-path" data-old_color="#000000" fill="#FAA400"/><path d="m77.492188 40.804688 11.3125-11.3125 11.3125 11.3125-11.3125 11.3125zm0 0" data-original="#000000" class="active-path" data-old_color="#000000" fill="#FAA400"/><path d="m48 112h16v16h-16zm0 0" data-original="#000000" class="active-path" data-old_color="#000000" fill="#FAA400"/><path d="m272 112h16v16h-16zm0 0" data-original="#000000" class="active-path" data-old_color="#000000" fill="#FAA400"/><path d="m235.882812 40.804688 11.3125-11.3125 11.3125 11.3125-11.3125 11.3125zm0 0" data-original="#000000" class="active-path" data-old_color="#000000" fill="#FAA400"/></g> </svg>
